<svg width="40" height="40" viewBox="0 0 40 40" fill="none" xmlns="http://www.w3.org/2000/svg">
<path d="M9.58244 36.888C6.54188 31.9262 4.78906 26.0899 4.78906 19.8442C4.78906 13.9728 6.37928 8.31608 9.09087 3.55469" stroke="#272E35" stroke-width="3" stroke-miterlimit="10" stroke-linecap="round" stroke-linejoin="round"/>
<path d="M2.5 5.62213L9.08992 3.55469L11.1533 10.253" stroke="#272E35" stroke-width="3" stroke-miterlimit="10" stroke-linecap="round" stroke-linejoin="round"/>
<path d="M24.4473 27.4297L28.7389 29.9953" stroke="#272E35" stroke-width="3" stroke-miterlimit="10" stroke-linecap="round" stroke-linejoin="round"/>
<path d="M38.3333 16.9833L35.1786 14.1769C33.8121 12.9612 31.7212 13.0737 30.493 14.4291L24.1511 21.4277L16.2832 16.7242C15.0981 16.0157 13.5631 16.4021 12.8546 17.5872V17.5872C12.1461 18.7723 12.5325 20.3073 13.7176 21.0158L24.4466 27.4297L22.7362 30.2908C22.2639 31.0808 22.5214 32.1042 23.3115 32.5765L29.0336 35.9973C31.5371 37.4939 35.5079 35.0133 38.3243 36.697" stroke="#272E35" stroke-width="3" stroke-miterlimit="10" stroke-linecap="round" stroke-linejoin="round"/>
</svg>
