<svg width="48" height="48" viewBox="0 0 48 48" fill="none" xmlns="http://www.w3.org/2000/svg">
<path d="M12.1143 26.9326C14.5593 32.3226 19.2763 35.9996 24.0003 35.9996C28.7243 35.9996 33.4413 32.3226 35.8863 26.9326" stroke="black" stroke-width="2" stroke-miterlimit="10" stroke-linecap="round" stroke-linejoin="round"/>
<path d="M36.6352 9.9996C35.5029 7.60653 33.7143 5.58423 31.4775 4.16803C29.2407 2.75184 26.6477 2 24.0002 2C21.3528 2 18.7598 2.75184 16.523 4.16803C14.2862 5.58423 12.4975 7.60653 11.3652 9.9996" stroke="black" stroke-width="2" stroke-miterlimit="10" stroke-linecap="round" stroke-linejoin="round"/>
<path d="M12 16H36" stroke="black" stroke-width="2" stroke-miterlimit="10" stroke-linecap="round" stroke-linejoin="round"/>
<path d="M42 24V13C42 12.2044 41.6839 11.4413 41.1213 10.8787C40.5587 10.3161 39.7956 10 39 10H9C8.20435 10 7.44129 10.3161 6.87868 10.8787C6.31607 11.4413 6 12.2044 6 13V24C6 24.7956 6.31607 25.5587 6.87868 26.1213C7.44129 26.6839 8.20435 27 9 27H19L21.119 23.609C21.4249 23.121 21.8497 22.7186 22.3536 22.4397C22.8575 22.1608 23.424 22.0145 24 22.0145C24.576 22.0145 25.1425 22.1608 25.6464 22.4397C26.1503 22.7186 26.5751 23.121 26.881 23.609L29 27H39C39.7956 27 40.5587 26.6839 41.1213 26.1213C41.6839 25.5587 42 24.7956 42 24Z" stroke="black" stroke-width="2" stroke-miterlimit="10" stroke-linecap="round" stroke-linejoin="round"/>
<path d="M17 33.3203V36.5683C16.9992 37.8508 16.5876 39.0992 15.8254 40.1306C15.0633 41.162 13.9907 41.9221 12.765 42.2993L4 44.9993" stroke="black" stroke-width="2" stroke-miterlimit="10" stroke-linecap="round" stroke-linejoin="round"/>
<path d="M44 44.9993L35.235 42.2993C34.0093 41.9221 32.9367 41.162 32.1746 40.1306C31.4124 39.0992 31.0008 37.8508 31 36.5683V33.3203" stroke="black" stroke-width="2" stroke-miterlimit="10" stroke-linecap="round" stroke-linejoin="round"/>
</svg>
