<svg width="40" height="39" viewBox="0 0 40 39" fill="none" xmlns="http://www.w3.org/2000/svg">
<g clip-path="url(#clip0_956_27941)" filter="url(#filter0_d_956_27941)">
<path d="M33 29H19C18.4696 29 17.9609 28.7893 17.5858 28.4142C17.2107 28.0391 17 27.5304 17 27V13H24L26 17H35V27C35 27.5304 34.7893 28.0391 34.4142 28.4142C34.0391 28.7893 33.5304 29 33 29Z" stroke="white" stroke-width="3" stroke-miterlimit="10" stroke-linecap="round" stroke-linejoin="round"/>
<path d="M13 19H7C6.46957 19 5.96086 18.7893 5.58579 18.4142C5.21071 18.0391 5 17.5304 5 17V3H12L14 7H23V9" stroke="white" stroke-width="3" stroke-miterlimit="10" stroke-linecap="round" stroke-linejoin="round"/>
<path d="M28 3C29.3261 3 30.5979 3.52678 31.5355 4.46447C32.4732 5.40215 33 6.67392 33 8" stroke="white" stroke-width="3" stroke-miterlimit="10" stroke-linecap="round" stroke-linejoin="round"/>
<path d="M12 29C10.6739 29 9.40215 28.4732 8.46447 27.5355C7.52678 26.5979 7 25.3261 7 24" stroke="white" stroke-width="3" stroke-miterlimit="10" stroke-linecap="round" stroke-linejoin="round"/>
</g>
<defs>
<filter id="filter0_d_956_27941" x="0" y="0" width="40" height="40" filterUnits="userSpaceOnUse" color-interpolation-filters="sRGB">
<feFlood flood-opacity="0" result="BackgroundImageFix"/>
<feColorMatrix in="SourceAlpha" type="matrix" values="0 0 0 0 0 0 0 0 0 0 0 0 0 0 0 0 0 0 127 0" result="hardAlpha"/>
<feOffset dy="4"/>
<feGaussianBlur stdDeviation="2"/>
<feComposite in2="hardAlpha" operator="out"/>
<feColorMatrix type="matrix" values="0 0 0 0 0 0 0 0 0 0 0 0 0 0 0 0 0 0 0.25 0"/>
<feBlend mode="normal" in2="BackgroundImageFix" result="effect1_dropShadow_956_27941"/>
<feBlend mode="normal" in="SourceGraphic" in2="effect1_dropShadow_956_27941" result="shape"/>
</filter>
<clipPath id="clip0_956_27941">
<rect width="32" height="32" fill="white" transform="translate(4)"/>
</clipPath>
</defs>
</svg>
